<svg id="Layer_3" enable-background="new 0 0 64 64" height="512" viewBox="0 0 64 64" width="512" xmlns="http://www.w3.org/2000/svg"><g><path d="m52 54h-21v-16l10-10h12v8" fill="#c7e2fc"/><path d="m31 38v10.35c1.268.418 2.609.65 4 .65 7.732 0 14-6.94 14-15.5 0-1.94-.336-3.789-.924-5.5h-7.076z" fill="#ebf7fe"/><path d="m62 62v-4c0-3.314-2.686-6-6-6h-6c-3.314 0-6 2.686-6 6v4" fill="#c66b60"/><path d="m48 61c6.075 0 11-3.358 11-7.5 0-.244-.02-.485-.054-.723-.87-.493-1.874-.777-2.946-.777h-6c-3.314 0-6 2.686-6 6v2.481c1.241.331 2.587.519 4 .519z" fill="#e47c6e"/><path d="m51 56 2-2 2 2 2.795-3.726c-.567-.178-1.17-.274-1.795-.274h-6c-.625 0-1.228.096-1.795.274z" fill="#efbe9a"/><path d="m57 44h3c1.105 0 2 .895 2 2 0 1.105-.895 2-2 2h-3" fill="#efbe9a"/><path d="m49 44h-3c-1.105 0-2 .895-2 2 0 1.105.895 2 2 2h3" fill="#db9b7c"/><path d="m48 40v7c0 2.761 2.239 5 5 5 2.761 0 5-2.239 5-5v-7" fill="#db9b7c"/><path d="m54 51.899c-2.282-.463-4-2.48-4-4.899v-7h8v7c0 2.419-1.718 4.436-4 4.899z" fill="#efbe9a"/><path d="m50 40c0 2.209 3.791 4 6 4h4v-4c0-2.209-1.791-4-4-4h-6c-2.209 0-4 1.791-4 4v4c2.209 0 4-1.791 4-4z" fill="#a66d43"/><path d="m50 40c0 .383-.071.745-.171 1.096-.528-.774-.829-1.657-.829-2.596 0-.891.276-1.731.755-2.475.083-.005.161-.025.245-.025h6c2.209 0 4 1.791 4 4v3.01c-1.134.622-2.512.99-4 .99-2.209 0-6-1.791-6-4z" fill="#c18e59"/><path d="m41 28v10h-10" fill="#c1c8d1"/><g fill="#8892a0"><path d="m33 40h2v2h-2z"/><path d="m36 40h6v2h-6z"/><path d="m33 43h2v2h-2z"/><path d="m36 43h6v2h-6z"/><path d="m33 46h2v2h-2z"/><path d="m36 46h6v2h-6z"/></g><path d="m38 8c0-3.314-2.686-6-6-6s-6 2.686-6 6c0 2.611 1.671 4.827 4 5.651v3.349l1 1-1 1 1 1-1 1v2l2 2 2-2v-9.349c2.329-.824 4-3.04 4-5.651z" fill="#c66b60"/><path d="m31 4h2v2h-2z" fill="#4d5d7a"/><path d="m13 33.414 2.293 2.293 1.414-1.414-4-4c-.391-.391-1.023-.391-1.414 0l-4 4 1.414 1.414 2.293-2.293v18.586c0 .553.448 1 1 1h16v-2h-15z" fill="#4d5d7a"/><path d="m55.293 20.293-2.293 2.293v-10.586c0-.553-.448-1-1-1h-11v2h10v9.586l-2.293-2.293-1.414 1.414 4 4c.195.195.451.293.707.293s.512-.098.707-.293l4-4z" fill="#4d5d7a"/><path d="m17 17h1.394c2.253 0 4.356-1.126 5.606-3-2.209 0-4-1.791-4-4v-1c0-3.866-3.134-7-7-7-3.866 0-7 3.134-7 7v1c0 2.209-1.791 4-4 4 1.249 1.874 3.353 3 5.606 3h1.394" fill="#976947"/><path d="m22 28h-18v-4c0-3.314 2.686-6 6-6h6c3.314 0 6 2.686 6 6z" fill="#78b75b"/><path d="m11 22 2-2 2 2 2.795-3.726c-.567-.178-1.17-.274-1.795-.274h-6c-.625 0-1.228.096-1.795.274z" fill="#669e4f"/><path d="m13 6c0 2.209 1.791 4 4 4h1v3c0 2.761-2.239 5-5 5-2.761 0-5-2.239-5-5v-3h1c2.209 0 4-1.791 4-4z" fill="#efbe9a"/><path d="m7 23h2v5h-2z" fill="#669e4f"/><path d="m17 23h2v5h-2z" fill="#669e4f"/><path d="m13 1c-4.411 0-8 3.589-8 8v1c0 1.654-1.346 3-3 3-.369 0-.708.203-.882.528s-.155.72.05 1.026c1.239 1.858 3.198 3.066 5.374 3.367-2.112 1.207-3.542 3.477-3.542 6.079v4c0 .553.448 1 1 1h18c.552 0 1-.447 1-1v-4c0-2.602-1.43-4.872-3.542-6.079 2.176-.3 4.135-1.508 5.374-3.367.205-.307.224-.701.05-1.026s-.513-.528-.882-.528c-1.654 0-3-1.346-3-3v-1c0-4.411-3.589-8-8-8zm-3 18h3 3l-1.109 1.478-1.185-1.185c-.194-.195-.45-.293-.706-.293s-.512.098-.707.293l-1.185 1.185zm7-6c0 2.206-1.794 4-4 4s-4-1.794-4-4v-2c1.634 0 3.087-.788 4-2.003.913 1.215 2.366 2.003 4 2.003zm4 11v3h-2v-4h-2v4h-8v-4h-2v4h-2v-3c0-1.993 1.18-3.703 2.871-4.506l2.329 3.106c.174.232.44.377.729.397.289.026.573-.085.778-.29l1.293-1.293 1.293 1.293c.188.189.443.293.707.293.023 0 .047-.001.071-.003.289-.021.555-.165.729-.397l2.329-3.106c1.691.803 2.871 2.513 2.871 4.506zm1.115-9.369c-1.024.874-2.337 1.369-3.72 1.369h-.206c.512-.884.811-1.907.811-3v-3c0-.553-.448-1-1-1h-1c-1.654 0-3-1.346-3-3 0-.553-.448-1-1-1s-1 .447-1 1c0 1.654-1.346 3-3 3h-1c-.552 0-1 .447-1 1v3c0 1.093.299 2.116.812 3h-.207c-1.384 0-2.696-.495-3.721-1.369 1.826-.745 3.116-2.54 3.116-4.631v-1c0-3.309 2.691-6 6-6s6 2.691 6 6v1c0 2.091 1.29 3.886 3.115 4.631z"/><path d="m60 49c1.654 0 3-1.346 3-3 0-1.302-.839-2.402-2-2.816v-3.184c0-2.757-2.243-5-5-5h-2v-7c0-.553-.448-1-1-1h-12c-.265 0-.52.105-.707.293l-10 10c-.188.187-.293.441-.293.707v16c0 .553.448 1 1 1h12.685c-.434.911-.685 1.926-.685 3v4c0 .553.448 1 1 1h18c.552 0 1-.447 1-1v-4c0-3.401-2.44-6.241-5.66-6.868.576-.605 1.025-1.329 1.31-2.132zm0-2h-1v-2h1c.551 0 1 .448 1 1s-.449 1-1 1zm-7 4c-2.206 0-4-1.794-4-4v-3.003c.498-.375.924-.839 1.253-1.371 1.537 1.498 4.135 2.374 5.747 2.374h1v2c0 2.206-1.794 4-4 4zm3 2-1.108 1.478-1.185-1.185c-.195-.195-.451-.293-.707-.293s-.512.098-.707.293l-1.185 1.185-1.108-1.478h3zm-9-6h-1c-.551 0-1-.448-1-1s.449-1 1-1h1zm12-7v3h-1-2c-1.974 0-5-1.609-5-3 0-.553-.448-1-1-1s-1 .447-1 1c0 1.304-.836 2.416-2 2.829v-2.829c0-1.654 1.346-3 3-3h6c1.654 0 3 1.346 3 3zm-19-9.586v6.586h-6.586zm-8 8.586h9c.552 0 1-.447 1-1v-9h10v6h-2c-2.757 0-5 2.243-5 5v3.184c-1.161.414-2 1.514-2 2.816 0 1.654 1.346 3 3 3h1.35c.285.803.734 1.527 1.31 2.132-1.367.266-2.591.931-3.55 1.868h-13.11zm29 19v3h-2v-4h-2v4h-8v-4h-2v4h-2v-3c0-1.993 1.18-3.703 2.871-4.506l2.329 3.106c.174.232.44.377.729.397.289.023.573-.085.778-.29l1.293-1.293 1.293 1.293c.188.189.443.293.707.293.023 0 .047-.001.071-.003.289-.021.555-.165.729-.397l2.329-3.106c1.691.803 2.871 2.513 2.871 4.506z"/><path d="m33 40h2v2h-2z"/><path d="m36 40h6v2h-6z"/><path d="m33 43h2v2h-2z"/><path d="m36 43h6v2h-6z"/><path d="m33 46h2v2h-2z"/><path d="m36 46h6v2h-6z"/><path d="m32 26c.256 0 .512-.098.707-.293l2-2c.188-.187.293-.441.293-.707v-8.681c2.419-1.148 4-3.604 4-6.319 0-3.859-3.14-7-7-7s-7 3.141-7 7c0 2.714 1.581 5.17 4 6.319v2.681c0 .266.105.52.293.707l.293.293-.293.293c-.391.391-.391 1.023 0 1.414l.293.293-.293.293c-.188.187-.293.441-.293.707v2c0 .266.105.52.293.707l2 2c.195.195.451.293.707.293zm-.293-6.707-.293-.293.293-.293c.391-.391.391-1.023 0-1.414l-.707-.707v-2.935c0-.424-.267-.802-.667-.942-1.993-.706-3.333-2.599-3.333-4.709 0-2.757 2.243-5 5-5s5 2.243 5 5c0 2.11-1.34 4.003-3.333 4.709-.4.141-.667.519-.667.942v8.935l-1 1-1-1v-1.172l.707-.707c.391-.391.391-1.023 0-1.414z"/><path d="m31 4h2v2h-2z"/><path d="m13 33.414 2.293 2.293 1.414-1.414-4-4c-.391-.391-1.023-.391-1.414 0l-4 4 1.414 1.414 2.293-2.293v18.586c0 .553.448 1 1 1h16v-2h-15z"/><path d="m52 11h-11v2h10v9.586l-2.293-2.293-1.414 1.414 4 4c.195.195.451.293.707.293s.512-.098.707-.293l4-4-1.414-1.414-2.293 2.293v-10.586c0-.553-.448-1-1-1z"/></g></svg>